<?xml version="1.0" encoding="utf-8"?>
<!-- Generator: Adobe Illustrator 21.0.0, SVG Export Plug-In . SVG Version: 6.00 Build 0)  -->
<svg version="1.1" id="Capa_1" xmlns="http://www.w3.org/2000/svg" xmlns:xlink="http://www.w3.org/1999/xlink" x="0px" y="0px"
	 viewBox="0 0 50 50" style="enable-background:new 0 0 50 50;" xml:space="preserve">
<style type="text/css">
	.st0{fill:#43BDEF;}
	.st1{fill:#FFFFFF;}
</style>
<g>
	<circle id="XMLID_49_" class="st0" cx="25.3" cy="24.9" r="24.7"/>
	<path id="XMLID_47_" class="st1" d="M39.9,17.4c-1.1,0.5-2.2,0.8-3.4,0.9c1.2-0.7,2.2-1.9,2.6-3.3c-1.2,0.7-2.4,1.2-3.8,1.4
		c-1.1-1.1-2.6-1.9-4.4-1.9c-3.3,0-6,2.6-6,5.9c0,0.5,0.1,0.9,0.2,1.3c-5-0.2-9.4-2.6-12.4-6.2c-0.5,0.9-0.8,1.9-0.8,3
		c0,2,1.1,3.9,2.7,4.9c-1,0-1.9-0.3-2.7-0.7c0,0,0,0,0,0.1c0,0.8,0.1,1.5,0.4,2.1c0.7,1.9,2.4,3.2,4.4,3.6c-0.5,0.1-1,0.2-1.6,0.2
		c-0.4,0-0.8,0-1.1-0.1c0.8,2.3,3,4.1,5.6,4.1c-2.1,1.6-4.6,2.5-7.4,2.5c-0.5,0-1,0-1.4-0.1c2.7,1.7,5.8,2.7,9.2,2.7
		c9.4,0,15.1-6.5,16.6-13.2c0.3-1.2,0.4-2.4,0.4-3.6c0-0.3,0-0.5,0-0.8C38.1,19.6,39.1,18.6,39.9,17.4z"/>
</g>
</svg>
